<svg width="84" height="29" viewBox="0 0 84 29" fill="none" xmlns="http://www.w3.org/2000/svg">
<path d="M14.0321 9.08864L16.5877 5.97082H2.58967C1.4851 5.97082 0.589671 5.07539 0.589671 3.97082V3.37076C0.589671 2.26619 1.4851 1.37076 2.58967 1.37076H22.4908C24.1656 1.37076 25.0987 3.30623 24.0555 4.6165L11.732 20.0947L9.07423 23.3999H23.8048C24.9094 23.3999 25.8048 24.2954 25.8048 25.3999V26C25.8048 27.1046 24.9094 28 23.8048 28H3.37483C1.70915 28 0.773377 26.083 1.79797 24.7698L14.0321 9.08864Z" fill="#203ED4"/>
<path d="M62.3457 0C61.8174 0 60.805 6.6031 60.3647 9.90465L70.2694 6.05284C67.8483 4.03523 62.8739 0 62.3457 0Z" fill="#203ED4"/>
<path d="M63.006 2.20102C62.5951 2.20102 61.8076 7.33676 61.4653 9.90464L69.1689 6.90879C67.2858 5.33953 63.4168 2.20102 63.006 2.20102Z" fill="#0C28B6"/>
<path d="M78.1931 0C78.7214 0 79.7338 6.6031 80.174 9.90465L70.2694 6.05284C72.6905 4.03523 77.6649 0 78.1931 0Z" fill="#203ED4"/>
<path d="M77.5328 2.20102C77.9437 2.20102 78.7311 7.33676 79.0735 9.90464L71.3699 6.90879C73.253 5.33953 77.1219 2.20102 77.5328 2.20102Z" fill="#0C28B6"/>
<path d="M37.8806 7.4285C37.743 4.26451 36.2298 -1.48569 31.2775 0.825393C26.3251 3.13648 30.5896 7.84119 33.3409 9.90466L37.8806 7.4285Z" fill="#203ED4"/>
<path d="M37.0552 7.42848C36.9657 4.98352 35.5685 0.277396 32.3465 2.06328C29.1245 3.84917 32.3763 7.48472 34.1663 9.07926L37.0552 7.42848Z" fill="#0C28B6"/>
<path d="M47.3725 7.13693C47.5101 3.97294 49.0233 -1.77726 53.9756 0.533828C58.9279 2.84491 54.6634 7.54962 51.9122 9.61309L47.3725 7.13693Z" fill="#203ED4"/>
<path d="M48.1979 7.13692C48.2874 4.69195 49.6846 -0.0141686 52.9066 1.77172C56.1286 3.5576 52.8768 7.19315 51.0868 8.78769L48.1979 7.13692Z" fill="#0C28B6"/>
<path d="M30.7687 16.9995C30.7687 15.3401 31.0734 13.8214 31.6828 12.4433C32.2921 11.0652 33.1452 9.88391 34.2421 8.89955C35.3483 7.90581 36.6702 7.13707 38.2077 6.59333C39.7545 6.04958 41.4655 5.77771 43.3404 5.77771C45.206 5.77771 46.9123 6.04958 48.4591 6.59333C50.006 7.13707 51.3279 7.90581 52.4247 8.89955C53.531 9.88391 54.3888 11.0652 54.9981 12.4433C55.6075 13.8214 55.9122 15.3401 55.9122 16.9995C55.9122 18.6682 55.6075 20.201 54.9981 21.5978C54.3888 22.9853 53.531 24.1806 52.4247 25.1837C51.3279 26.1869 50.006 26.9697 48.4591 27.5322C46.9123 28.0853 45.206 28.3618 43.3404 28.3618C41.4655 28.3618 39.7545 28.0853 38.2077 27.5322C36.6702 26.9697 35.3483 26.1869 34.2421 25.1837C33.1452 24.1806 32.2921 22.9853 31.6828 21.5978C31.0734 20.201 30.7687 18.6682 30.7687 16.9995ZM35.2265 16.9995C35.2265 18.1338 35.428 19.1557 35.8312 20.0651C36.2436 20.9744 36.8108 21.7525 37.5327 22.3994C38.2639 23.0369 39.1217 23.5291 40.1061 23.8759C41.0998 24.2228 42.178 24.3963 43.3404 24.3963C44.5029 24.3963 45.5764 24.2228 46.5607 23.8759C47.5545 23.5291 48.4123 23.0369 49.1341 22.3994C49.856 21.7525 50.4232 20.9744 50.8357 20.0651C51.2482 19.1557 51.4544 18.1338 51.4544 16.9995C51.4544 15.8651 51.2482 14.8479 50.8357 13.9479C50.4232 13.0479 49.2412 13.2062 48.1979 13.2062C46.4363 13.2062 47.2765 13.2062 46.5607 13.2062C45.6257 13.2062 45.1374 13.2062 43.9749 13.2062C42.8124 13.2062 42.6513 13.2062 41.4987 13.2062C40.3462 13.2062 40.6734 13.2062 39.4353 13.2062C38.1972 13.2062 36.2436 13.0479 35.8312 13.9479C35.428 14.8479 35.2265 15.8651 35.2265 16.9995Z" fill="#203ED4"/>
<path d="M37.4679 10.7301C38.0181 10.3218 39.1187 9.83225 40.7694 9.91362" stroke="#F5F6FF" stroke-width="2.47616" stroke-linecap="round"/>
<path d="M49.0233 10.7301C48.473 10.3218 47.3725 9.83225 45.7217 9.91362" stroke="#F5F6FF" stroke-width="2.47616" stroke-linecap="round"/>
<path d="M43.0028 23.9362C42.2498 23.9362 41.5697 23.7931 40.991 23.5902C39.7445 23.153 39.4934 21.6156 40.7165 21.1166C42.5087 20.3854 45.2451 20.4863 46.5927 21.4194C47.3162 21.9203 47.0905 22.9628 46.2927 23.3341C45.5362 23.6862 44.4396 23.9362 43.0028 23.9362Z" fill="#203ED4"/>
<path d="M43.6583 16.5078V13.6189H46.1344V16.5078C46.1344 16.9636 45.7649 17.3331 45.3091 17.3331H44.4837C44.0278 17.3331 43.6583 16.9636 43.6583 16.5078Z" fill="#203ED4"/>
<path d="M40.3567 16.5078V13.6189H42.8329V16.5078C42.8329 16.9636 42.4634 17.3331 42.0075 17.3331H41.1821C40.7263 17.3331 40.3567 16.9636 40.3567 16.5078Z" fill="#203ED4"/>
<path d="M47.9011 10.2013C47.5385 9.80747 47.1244 9.83743 46.738 10.0647C45.9619 10.5211 46.1453 12.0465 47.0102 12.297C48.0658 12.6028 48.6454 11.0098 47.9011 10.2013Z" fill="#203ED4" stroke="#203ED4" stroke-width="0.825388"/>
<path d="M39.6472 10.2076C39.2846 9.81378 38.8705 9.84375 38.4842 10.071C37.708 10.5275 37.8914 12.0528 38.7563 12.3034C39.8119 12.6091 40.3915 11.0161 39.6472 10.2076Z" fill="#203ED4" stroke="#1E3BCA" stroke-width="0.825388"/>
<path d="M57.8886 16.9995C57.8886 15.3401 58.1933 13.8214 58.8026 12.4433C59.412 11.0652 60.2651 9.88391 61.362 8.89955C62.4682 7.90581 63.7901 7.13707 65.3276 6.59333C66.8744 6.04958 68.5853 5.77771 70.4603 5.77771C72.3259 5.77771 74.0322 6.04958 75.579 6.59333C77.1259 7.13707 78.4477 7.90581 79.5446 8.89955C80.6508 9.88391 81.5086 11.0652 82.118 12.4433C82.7274 13.8214 83.0321 15.3401 83.0321 16.9995C83.0321 18.6682 82.7274 20.201 82.118 21.5978C81.5086 22.9853 80.6508 24.1806 79.5446 25.1837C78.4477 26.1869 77.1259 26.9697 75.579 27.5322C74.0322 28.0853 72.3259 28.3618 70.4603 28.3618C68.5853 28.3618 66.8744 28.0853 65.3276 27.5322C63.7901 26.9697 62.4682 26.1869 61.362 25.1837C60.2651 24.1806 59.412 22.9853 58.8026 21.5978C58.1933 20.201 57.8886 18.6682 57.8886 16.9995ZM62.3463 16.9995C62.3463 18.1338 62.5479 19.1557 62.951 20.0651C63.3635 20.9744 63.9307 21.7525 64.6526 22.3994C65.3838 23.0369 66.2416 23.5291 67.226 23.8759C68.2197 24.2228 69.2978 24.3963 70.4603 24.3963C71.6228 24.3963 72.6962 24.2228 73.6806 23.8759C74.6743 23.5291 75.5321 23.0369 76.254 22.3994C76.9759 21.7525 77.5431 20.9744 77.9555 20.0651C78.368 19.1557 78.5743 18.1338 78.5743 16.9995C78.5743 15.8651 78.368 14.8479 77.9555 13.9479C77.5431 13.0479 76.361 13.2062 75.3178 13.2062C73.5562 13.2062 74.3963 13.2062 73.6806 13.2062C72.7456 13.2062 72.2573 13.2062 71.0948 13.2062C69.9323 13.2062 69.7712 13.2062 68.6186 13.2062C67.4661 13.2062 67.7932 13.2062 66.5552 13.2062C65.3171 13.2062 63.3635 13.0479 62.951 13.9479C62.5479 14.8479 62.3463 15.8651 62.3463 16.9995Z" fill="#203ED4"/>
<path d="M64.5878 10.7301C65.138 10.3218 66.2385 9.83225 67.8893 9.91362" stroke="#F5F6FF" stroke-width="2.47616" stroke-linecap="round"/>
<path d="M76.1432 10.7301C75.5929 10.3218 74.4924 9.83225 72.8416 9.91362" stroke="#F5F6FF" stroke-width="2.47616" stroke-linecap="round"/>
<path d="M70.1227 23.9362C69.3696 23.9362 68.6896 23.7931 68.1108 23.5902C66.8643 23.153 66.6133 21.6156 67.8363 21.1166C69.6286 20.3854 72.365 20.4863 73.7125 21.4194C74.436 21.9203 74.2103 22.9628 73.4125 23.3341C72.656 23.6862 71.5594 23.9362 70.1227 23.9362Z" fill="#203ED4"/>
<path d="M66.7433 9.09995C66.5738 7.79273 66.3284 8.21891 66.1509 8.91811C66.0514 9.31005 66.1399 10.1971 66.3125 10.5628C66.6576 11.2942 66.8473 9.90199 66.7433 9.09995Z" fill="#203ED4" stroke="#1E3BCA" stroke-width="0.825388"/>
<path d="M73.1469 9.07465C73.3164 7.76743 73.5618 8.19361 73.7393 8.89281C73.8388 9.28475 73.7504 10.1718 73.5778 10.5375C73.2326 11.2689 73.0429 9.87668 73.1469 9.07465Z" fill="#203ED4" stroke="#203ED4" stroke-width="0.825388"/>
</svg>
